<svg width="25" height="7" viewBox="0 0 25 7" fill="none" xmlns="http://www.w3.org/2000/svg">
<path d="M3.18866 6.252C2.27666 6.252 1.52066 5.976 0.920656 5.424C0.344656 4.848 0.0566564 4.14 0.0566564 3.3C0.0566564 2.46 0.344656 1.764 0.920656 1.212C1.52066 0.636 2.27666 0.348 3.18866 0.348C4.07666 0.348 4.80866 0.636 5.38466 1.212C5.96066 1.764 6.24866 2.46 6.24866 3.3C6.24866 4.14 5.96066 4.848 5.38466 5.424C4.80866 5.976 4.07666 6.252 3.18866 6.252ZM12.5402 6.252C11.6282 6.252 10.8722 5.976 10.2722 5.424C9.69622 4.848 9.40822 4.14 9.40822 3.3C9.40822 2.46 9.69622 1.764 10.2722 1.212C10.8722 0.636 11.6282 0.348 12.5402 0.348C13.4282 0.348 14.1602 0.636 14.7362 1.212C15.3122 1.764 15.6002 2.46 15.6002 3.3C15.6002 4.14 15.3122 4.848 14.7362 5.424C14.1602 5.976 13.4282 6.252 12.5402 6.252ZM21.8918 6.252C20.9798 6.252 20.2238 5.976 19.6238 5.424C19.0478 4.848 18.7598 4.14 18.7598 3.3C18.7598 2.46 19.0478 1.764 19.6238 1.212C20.2238 0.636 20.9798 0.348 21.8918 0.348C22.7798 0.348 23.5118 0.636 24.0878 1.212C24.6638 1.764 24.9518 2.46 24.9518 3.3C24.9518 4.14 24.6638 4.848 24.0878 5.424C23.5118 5.976 22.7798 6.252 21.8918 6.252Z" fill="black"/>
</svg>
